# xmcd
# 
# Track frame offsets:
#     150
#     11913
#     22168
#     32293
#     44557
#     56458
#     69859
#     82089
#     92006
#     104044
#     112785
#     126762
#     139791
#     152046
#     164802
#     177114
# 
# Disc length: 2517
# 
# Revision: 1
# Processed by: cddbd v1.5.2PL0 Copyright (c) Steve Scherf et al.
# Submitted via: fre:ac v1.0.31
# 
DISCID=d509d310
DTITLE=Various Artist - Ultimate Country [ CD 5 ]
DYEAR=2005
DGENRE=Country
TTITLE0=Lynn Anderson - You're my Man
TTITLE1=Dolly Parton - Release Me
TTITLE2=Patsy Cline - Three Cigarettes in the Ashtray
TTITLE3=Billie Jo Spears - What I've Got in Mind
TTITLE4=Skeeter Davis - The End of the World
TTITLE5=Patty Page - Mockin' bird hill
TTITLE6=Sammi Smith - Send me the Pillow that you Dream on
TTITLE7=Kitty Wells - I can't Stop Loving you
TTITLE8=Wanda Jackson - Right or Wrong
TTITLE9=Sandy Posey - Born a Woman
TTITLE10=Barbara Fairchild - Teddy Bear Song
TTITLE11=Donna Fargo - Daddy
TTITLE12=Tanya Tucker - Love Knows we Tried
TTITLE13=Dottie West - I Fall to Pieces
TTITLE14=Jeannie Pruett - Satin Sheets
TTITLE15=Wilma Burgess - Misty Blue
EXTD=
EXTT0=
EXTT1=
EXTT2=
EXTT3=
EXTT4=
EXTT5=
EXTT6=
EXTT7=
EXTT8=
EXTT9=
EXTT10=
EXTT11=
EXTT12=
EXTT13=
EXTT14=
EXTT15=
PLAYORDER=
